<?xml version="1.0" encoding="UTF-8" standalone="no"?><!DOCTYPE svg PUBLIC "-//W3C//DTD SVG 1.1//EN" "http://www.w3.org/Graphics/SVG/1.1/DTD/svg11.dtd"><svg width="100%" height="100%" viewBox="0 0 867 807" version="1.1" xmlns="http://www.w3.org/2000/svg" xmlns:xlink="http://www.w3.org/1999/xlink" xml:space="preserve" xmlns:serif="http://www.serif.com/" style="fill-rule:evenodd;clip-rule:evenodd;stroke-linejoin:round;stroke-miterlimit:2;"><g><path d="M130.683,559.243l78.713,-0l-0,-248.988l-78.713,0l0,248.988Zm87.046,16.666l-95.379,0c-4.6,0 -8.333,-3.729 -8.333,-8.333l-0,-265.654c-0,-4.604 3.733,-8.333 8.333,-8.333l95.379,-0c4.6,-0 8.333,3.729 8.333,8.333l0,265.654c0,4.604 -3.733,8.333 -8.333,8.333Z" style="fill:#4361ee;fill-rule:nonzero;"/><path d="M115.025,293.589l110.029,-0l7.525,-35.459l-125.079,0l7.525,35.459Zm116.779,16.666l-123.529,0c-3.933,0 -7.333,-2.758 -8.154,-6.604l-11.059,-47.958c-0.52,-2.459 0.096,-5.021 1.675,-6.975c1.584,-1.954 3.963,-3.088 6.475,-3.088l145.655,0c2.516,0 4.895,1.134 6.475,3.088c1.583,1.954 2.2,4.516 1.679,6.975l-11.063,47.958c-0.821,3.846 -4.221,6.604 -8.154,6.604Z" style="fill:#4361ee;fill-rule:nonzero;"/><path d="M107.5,611.364l125.079,-0l-7.525,-35.455l-110.029,0l-7.525,35.455Zm135.367,12.5l-145.655,-0c-2.512,-0 -4.891,-1.134 -6.475,-3.088c-1.579,-1.954 -2.195,-4.517 -1.674,-6.975l11.058,-47.954c0.821,-3.846 4.221,-6.604 8.154,-6.604l123.529,-0c3.933,-0 7.333,2.758 8.154,6.604l11.063,47.954c0.521,2.458 -0.096,5.021 -1.679,6.975c-1.58,1.954 -3.959,3.088 -6.475,3.088Z" style="fill:#4361ee;fill-rule:nonzero;"/><path d="M657.154,559.243l78.708,-0l0,-248.988l-78.708,0l0,248.988Zm87.042,16.666l-95.375,0c-4.6,0 -8.334,-3.729 -8.334,-8.333l0,-265.654c0,-4.604 3.734,-8.333 8.334,-8.333l95.375,-0c4.604,-0 8.333,3.729 8.333,8.333l0,265.654c0,4.604 -3.729,8.333 -8.333,8.333Z" style="fill:#4361ee;fill-rule:nonzero;"/><path d="M641.496,293.589l110.029,-0l7.529,-35.459l-125.083,0l7.525,35.459Zm116.779,16.666l-123.529,0c-3.938,0 -7.338,-2.758 -8.154,-6.604l-11.059,-47.958c-0.525,-2.459 0.096,-5.021 1.679,-6.975c1.576,-1.954 3.959,-3.088 6.471,-3.088l145.654,0c2.517,0 4.896,1.134 6.476,3.088c1.583,1.954 2.199,4.516 1.674,6.975l-11.062,47.958c-0.813,3.846 -4.217,6.604 -8.15,6.604Z" style="fill:#4361ee;fill-rule:nonzero;"/><path d="M633.971,611.364l125.083,-0l-7.529,-35.455l-110.029,0l-7.525,35.455Zm135.366,12.5l-145.654,-0c-2.512,-0 -4.895,-1.134 -6.471,-3.088c-1.583,-1.954 -2.204,-4.517 -1.679,-6.975l11.059,-47.954c0.816,-3.846 4.216,-6.604 8.154,-6.604l123.529,-0c3.933,-0 7.337,2.758 8.15,6.604l11.062,47.954c0.525,2.458 -0.091,5.021 -1.674,6.975c-1.58,1.954 -3.959,3.088 -6.476,3.088Z" style="fill:#4361ee;fill-rule:nonzero;"/><path d="M433.275,75.472c-20.571,-0 -37.313,16.737 -37.313,37.308c0,20.575 16.742,37.309 37.313,37.309c20.575,-0 37.308,-16.734 37.308,-37.309c0,-20.571 -16.733,-37.308 -37.308,-37.308Zm-0,91.283c-29.763,0 -53.979,-24.212 -53.979,-53.975c-0,-29.762 24.216,-53.975 53.979,-53.975c29.762,0 53.975,24.213 53.975,53.975c0,29.763 -24.213,53.975 -53.975,53.975Z" style="fill:#4361ee;fill-rule:nonzero;"/><path d="M39.633,241.464l787.288,-0l-0,-36.405l-393.646,-187.495l-393.642,187.495l0,36.405Zm795.621,16.666l-803.954,0c-4.604,0 -8.333,-3.733 -8.333,-8.333l-0,-50c-0,-3.217 1.845,-6.142 4.75,-7.525l401.975,-191.463c2.266,-1.079 4.9,-1.079 7.166,0l401.979,191.463c2.9,1.383 4.75,4.308 4.75,7.525l0,50c0,4.6 -3.733,8.333 -8.333,8.333Z" style="fill:#4361ee;fill-rule:nonzero;"/><path d="M835.254,208.13l-803.954,0c-4.604,0 -8.333,-3.733 -8.333,-8.333c-0,-4.604 3.729,-8.333 8.333,-8.333l803.954,-0c4.6,-0 8.333,3.729 8.333,8.333c0,4.6 -3.733,8.333 -8.333,8.333Z" style="fill:#4361ee;fill-rule:nonzero;"/><path d="M657.937,730.493l-69.991,-0c-47.888,-0 -61.883,30.521 -65.967,48.716c-1.421,6.33 -6.846,10.755 -13.2,10.755l-151.012,-0c-6.35,-0 -11.775,-4.421 -13.192,-10.755c-4.083,-18.195 -18.079,-48.716 -65.971,-48.716l-245.604,-0c-9.008,-0 -16.333,-7.329 -16.333,-16.338c-0,-9.004 7.325,-16.329 16.333,-16.329l279.508,0c26.763,0 51.138,26.988 51.138,56.621c-0,4.604 3.733,8.333 8.333,8.333l122.592,0c4.6,0 8.333,-3.729 8.333,-8.333c0,-29.633 24.375,-56.621 51.133,-56.621l103.9,0l0,-16.667l-103.9,0c-33.52,0 -63.22,29.5 -67.32,64.955l-106.884,-0c-4.1,-35.455 -33.8,-64.955 -67.325,-64.955l-279.508,0c-1.238,0 -2.458,0.075 -3.658,0.217c-0.046,0 -0.088,0.017 -0.134,0.017c-1.166,0.141 -2.321,0.341 -3.45,0.591c-14.721,3.313 -25.758,16.471 -25.758,32.171c-0,18.196 14.804,33.004 33,33.004l245.604,0c27.671,0 44.392,12.013 49.708,35.696c3.138,14 15.25,23.775 29.455,23.775l151.012,0c14.204,0 26.321,-9.775 29.459,-23.775c5.316,-23.683 22.037,-35.696 49.708,-35.696l69.991,0l0,-16.666Z" style="fill:#4361ee;fill-rule:nonzero;"/><path d="M840.796,681.984c-1.129,-0.25 -2.279,-0.45 -3.442,-0.591c-0.05,-0 -0.096,-0.017 -0.146,-0.017c-1.2,-0.142 -2.421,-0.217 -3.658,-0.217l-82.721,0l0,16.667l82.721,0c9.008,0 16.333,7.325 16.333,16.329c0,9.009 -7.325,16.338 -16.333,16.338l-82.721,-0l0,16.666l82.721,0c18.2,0 33,-14.808 33,-33.004c-0,-15.7 -11.033,-28.858 -25.754,-32.171Z" style="fill:#4361ee;fill-rule:nonzero;"/><path d="M170.037,501.576c-4.6,0 -8.333,-3.733 -8.333,-8.333l0,-116.988c0,-4.6 3.733,-8.333 8.333,-8.333c4.605,-0 8.334,3.733 8.334,8.333l-0,116.988c-0,4.6 -3.729,8.333 -8.334,8.333Z" style="fill:#4361ee;fill-rule:nonzero;"/><path d="M696.508,501.576c-4.6,0 -8.333,-3.733 -8.333,-8.333l-0,-116.988c-0,-4.6 3.733,-8.333 8.333,-8.333c4.604,-0 8.334,3.733 8.334,8.333l-0,116.988c-0,4.6 -3.73,8.333 -8.334,8.333Z" style="fill:#4361ee;fill-rule:nonzero;"/><path d="M704.379,749.339c2.246,-0 4.4,0.904 5.971,2.516l23.813,24.429l-0,-97.762l-59.559,-0l0,97.758l23.808,-24.425c1.571,-1.612 3.721,-2.516 5.967,-2.516Zm-678.621,-67.355c2.334,-0.529 4.75,-0.825 7.242,-0.825l10.183,0l-16.054,-44.333c-0.733,-2.042 -0.446,-4.229 0.8,-6.004c1.246,-1.775 3.2,-2.792 5.367,-2.792l309.137,0c45.496,0 82.509,37.013 82.509,82.509c-0,4.6 3.733,8.333 8.333,8.333c4.6,-0 8.333,-3.733 8.333,-8.333c0,-45.496 37.013,-82.509 82.509,-82.509l309.133,0c2.171,0 4.125,1.017 5.371,2.796c1.246,1.775 1.537,3.958 0.8,6l-16.054,44.333l10.183,0c2.492,0 4.912,0.296 7.246,0.825l14.296,-39.487c2.575,-7.108 1.521,-15.05 -2.821,-21.242c-4.346,-6.191 -11.454,-9.891 -19.021,-9.891l-309.133,-0c-40.546,-0 -75.48,24.454 -90.842,59.387c-15.358,-34.933 -50.296,-59.387 -90.842,-59.387l-309.137,-0c-7.563,-0 -14.671,3.695 -19.013,9.887c-4.341,6.196 -5.4,14.138 -2.821,21.246l14.296,39.487Zm716.738,123.121c-2.2,0 -4.367,-0.875 -5.971,-2.516l-32.146,-32.98l-32.137,32.98c-2.38,2.433 -5.98,3.179 -9.113,1.904c-3.137,-1.279 -5.192,-4.329 -5.192,-7.721l0,-126.583c0,-4.6 3.73,-8.334 8.334,-8.334l76.225,0c4.6,0 8.333,3.734 8.333,8.334l0,126.583c0,3.392 -2.054,6.442 -5.191,7.721c-1.017,0.412 -2.084,0.612 -3.142,0.612Z" style="fill:#4361ee;fill-rule:nonzero;"/><path d="M441,531.226l134.371,0l-0,-192.958l-110.571,-0c-13.121,-0 -23.8,10.679 -23.8,23.8l-0,169.158Zm142.1,15.463l-149.825,-0c-4.271,-0 -7.729,-3.463 -7.729,-7.734l-0,-176.887c-0,-21.646 17.608,-39.259 39.254,-39.259l118.3,0c4.267,0 7.729,3.463 7.729,7.734l0,208.412c0,4.271 -3.462,7.734 -7.729,7.734Z" style="fill:#4361ee;fill-rule:nonzero;"/><path d="M554.321,373.851l-92.267,0c-4.271,0 -7.729,-3.462 -7.729,-7.729c-0,-4.271 3.458,-7.733 7.729,-7.733l92.267,-0c4.267,-0 7.729,3.462 7.729,7.733c-0,4.267 -3.462,7.729 -7.729,7.729Z" style="fill:#4361ee;fill-rule:nonzero;"/><path d="M554.321,408.168l-92.267,-0c-4.271,-0 -7.729,-3.459 -7.729,-7.729c-0,-4.271 3.458,-7.73 7.729,-7.73l92.267,0c4.267,0 7.729,3.459 7.729,7.73c-0,4.27 -3.462,7.729 -7.729,7.729Z" style="fill:#4361ee;fill-rule:nonzero;"/><path d="M554.321,442.48l-92.267,0c-4.271,0 -7.729,-3.462 -7.729,-7.729c-0,-4.271 3.458,-7.729 7.729,-7.729l92.267,-0c4.267,-0 7.729,3.458 7.729,7.729c-0,4.267 -3.462,7.729 -7.729,7.729Z" style="fill:#4361ee;fill-rule:nonzero;"/><path d="M554.321,476.793l-92.267,-0c-4.271,-0 -7.729,-3.463 -7.729,-7.729c-0,-4.271 3.458,-7.734 7.729,-7.734l92.267,0c4.267,0 7.729,3.463 7.729,7.734c-0,4.266 -3.462,7.729 -7.729,7.729Z" style="fill:#4361ee;fill-rule:nonzero;"/><path d="M554.321,511.105l-92.267,0c-4.271,0 -7.729,-3.458 -7.729,-7.729c-0,-4.271 3.458,-7.729 7.729,-7.729l92.267,-0c4.267,-0 7.729,3.458 7.729,7.729c-0,4.271 -3.462,7.729 -7.729,7.729Z" style="fill:#4361ee;fill-rule:nonzero;"/><path d="M291.179,531.226l134.367,0l-0,-169.158c-0,-13.121 -10.675,-23.8 -23.796,-23.8l-110.571,-0l0,192.958Zm142.096,15.463l-149.825,-0c-4.267,-0 -7.729,-3.463 -7.729,-7.734l-0,-208.412c-0,-4.271 3.462,-7.734 7.729,-7.734l118.3,0c21.646,0 39.25,17.613 39.25,39.259l-0,176.887c-0,4.271 -3.458,7.734 -7.725,7.734Z" style="fill:#4361ee;fill-rule:nonzero;"/><path d="M404.496,373.851l-92.267,0c-4.271,0 -7.733,-3.462 -7.733,-7.729c-0,-4.271 3.462,-7.733 7.733,-7.733l92.267,-0c4.271,-0 7.729,3.462 7.729,7.733c-0,4.267 -3.458,7.729 -7.729,7.729Z" style="fill:#4361ee;fill-rule:nonzero;"/><path d="M404.496,408.168l-92.267,-0c-4.271,-0 -7.733,-3.459 -7.733,-7.729c-0,-4.271 3.462,-7.73 7.733,-7.73l92.267,0c4.271,0 7.729,3.459 7.729,7.73c-0,4.27 -3.458,7.729 -7.729,7.729Z" style="fill:#4361ee;fill-rule:nonzero;"/><path d="M404.496,442.48l-92.267,0c-4.271,0 -7.733,-3.462 -7.733,-7.729c-0,-4.271 3.462,-7.729 7.733,-7.729l92.267,-0c4.271,-0 7.729,3.458 7.729,7.729c-0,4.267 -3.458,7.729 -7.729,7.729Z" style="fill:#4361ee;fill-rule:nonzero;"/><path d="M404.496,476.793l-92.267,-0c-4.271,-0 -7.733,-3.463 -7.733,-7.729c-0,-4.271 3.462,-7.734 7.733,-7.734l92.267,0c4.271,0 7.729,3.463 7.729,7.734c-0,4.266 -3.458,7.729 -7.729,7.729Z" style="fill:#4361ee;fill-rule:nonzero;"/><path d="M404.496,511.105l-92.267,0c-4.271,0 -7.733,-3.458 -7.733,-7.729c-0,-4.271 3.462,-7.729 7.733,-7.729l92.267,-0c4.271,-0 7.729,3.458 7.729,7.729c-0,4.271 -3.458,7.729 -7.729,7.729Z" style="fill:#4361ee;fill-rule:nonzero;"/><path d="M214.508,191.464l0,-69.7l-16.666,7.941l-0,61.759l16.666,-0Z" style="fill:#4361ee;fill-rule:nonzero;"/><path d="M744.408,191.464l0,-25.705l-16.666,-7.937l-0,33.642l16.666,-0Z" style="fill:#4361ee;fill-rule:nonzero;"/><path d="M668.708,191.464l0,-61.763l-16.666,-7.942l-0,69.705l16.666,-0Z" style="fill:#4361ee;fill-rule:nonzero;"/><path d="M138.808,191.464l0,-33.642l-16.666,7.937l-0,25.705l16.666,-0Z" style="fill:#4361ee;fill-rule:nonzero;"/><path d="M290.208,191.464l0,-105.759l-16.666,7.938l-0,97.821l16.666,-0Z" style="fill:#4361ee;fill-rule:nonzero;"/><path d="M424.942,166.043l-0,25.421l16.666,-0l0,-25.421c-2.721,0.429 -5.491,0.712 -8.333,0.712c-2.842,0 -5.608,-0.283 -8.333,-0.712Z" style="fill:#4361ee;fill-rule:nonzero;"/><path d="M365.908,191.464l0,-141.813l-16.666,7.938l-0,133.875l16.666,-0Z" style="fill:#4361ee;fill-rule:nonzero;"/><path d="M424.942,21.534l-0,37.984c2.725,-0.425 5.491,-0.713 8.333,-0.713c2.842,0 5.612,0.288 8.333,0.713l0,-37.984l-8.333,-3.97l-8.333,3.97Z" style="fill:#4361ee;fill-rule:nonzero;"/><path d="M431.067,0.334c-0.421,0.121 -0.834,0.25 -1.225,0.43c0.395,-0.184 0.808,-0.313 1.225,-0.43Z" style="fill:#4361ee;fill-rule:nonzero;"/><path d="M433.079,0.022c-0.533,0.012 -1.058,0.067 -1.558,0.175c0.512,-0.113 1.033,-0.163 1.558,-0.175Z" style="fill:#4361ee;fill-rule:nonzero;"/><path d="M436.708,0.764c-0.391,-0.18 -0.804,-0.309 -1.225,-0.43c0.417,0.117 0.829,0.246 1.225,0.43Z" style="fill:#4361ee;fill-rule:nonzero;"/><path d="M593.008,191.464l0,-97.821l-16.666,-7.938l-0,105.759l16.666,-0Z" style="fill:#4361ee;fill-rule:nonzero;"/><path d="M435.029,0.197c-0.5,-0.108 -1.025,-0.163 -1.558,-0.175c0.525,0.012 1.046,0.062 1.558,0.175Z" style="fill:#4361ee;fill-rule:nonzero;"/><path d="M517.308,191.464l0,-133.875l-16.666,-7.938l-0,141.813l16.666,-0Z" style="fill:#4361ee;fill-rule:nonzero;"/></g></svg>